<svg width="30" height="30" viewBox="0 0 30 30" fill="none" xmlns="http://www.w3.org/2000/svg">
<path d="M13.3157 26.8478L13.4571 27.8377L13.3157 26.8478ZM9.4396 26.7049L8.78439 27.4603L9.4396 26.7049ZM21.0985 25.7359L20.9571 24.746L21.0985 25.7359ZM25.5164 5.63628L24.7609 6.29148L25.5164 5.63628ZM13.1743 4.14219L20.9571 5.25402L21.2399 3.27413L13.4571 2.16229L13.1743 4.14219ZM25.25 10.2038V19.7962H27.25V10.2038H25.25ZM20.9571 24.746L13.1743 25.8578L13.4571 27.8377L21.24 26.7259L20.9571 24.746ZM9.75 8.91492V7.11204H7.75V8.91492H9.75ZM9.75 22.888V21.3325H7.75V22.888H9.75ZM13.1743 25.8578C12.0821 26.0138 11.3681 26.1135 10.8378 26.1144C10.3358 26.1153 10.1805 26.0237 10.0948 25.9494L8.78439 27.4603C9.38831 27.9841 10.1088 28.1157 10.8414 28.1144C11.5457 28.1131 12.4249 27.9852 13.4571 27.8377L13.1743 25.8578ZM7.75 22.888C7.75 23.9306 7.74765 24.8191 7.846 25.5165C7.9483 26.2419 8.18048 26.9366 8.78439 27.4603L10.0948 25.9494C10.0091 25.8751 9.8965 25.7343 9.8264 25.2372C9.75235 24.7121 9.75 23.9912 9.75 22.888H7.75ZM25.25 19.7962C25.25 21.0628 25.2481 21.919 25.1662 22.5678C25.0877 23.1887 24.9489 23.4918 24.7609 23.7085L26.2718 25.0189C26.8175 24.3898 27.0454 23.6496 27.1504 22.8185C27.2519 22.0153 27.25 21.0107 27.25 19.7962H25.25ZM21.24 26.7259C22.4422 26.5541 23.437 26.4139 24.2177 26.1999C25.0257 25.9784 25.7262 25.6481 26.2718 25.0189L24.7609 23.7085C24.5729 23.9253 24.2926 24.1056 23.689 24.271C23.0583 24.4439 22.211 24.5669 20.9571 24.746L21.24 26.7259ZM20.9571 5.25402C22.211 5.43315 23.0583 5.55607 23.689 5.72897C24.2926 5.89442 24.5729 6.07473 24.7609 6.29148L26.2718 4.98108C25.7262 4.35194 25.0257 4.02159 24.2177 3.80012C23.437 3.58611 22.4422 3.44588 21.2399 3.27413L20.9571 5.25402ZM27.25 10.2038C27.25 8.9893 27.2519 7.98468 27.1504 7.18152C27.0454 6.35041 26.8175 5.61022 26.2718 4.98108L24.7609 6.29148C24.9489 6.50824 25.0877 6.81125 25.1662 7.43216C25.2481 8.081 25.25 8.93718 25.25 10.2038H27.25ZM13.4571 2.16229C12.4249 2.01483 11.5457 1.88686 10.8414 1.88559C10.1088 1.88428 9.38831 2.01588 8.78439 2.53966L10.0948 4.05057C10.1805 3.97626 10.3358 3.88469 10.8378 3.88559C11.3681 3.88654 12.0821 3.98617 13.1743 4.14219L13.4571 2.16229ZM9.75 7.11204C9.75 6.00883 9.75235 5.28786 9.8264 4.76279C9.8965 4.26573 10.0091 4.12487 10.0948 4.05057L8.78439 2.53966C8.18048 3.06343 7.9483 3.75809 7.846 4.4835C7.74765 5.1809 7.75 6.06935 7.75 7.11204H9.75Z" fill="#CCD2E3"/>
<path d="M20 15L20.7809 14.3753L21.2806 15L20.7809 15.6247L20 15ZM5 16C4.44772 16 4 15.5523 4 15C4 14.4477 4.44772 14 5 14V16ZM15.7809 8.1253L20.7809 14.3753L19.2191 15.6247L14.2191 9.3747L15.7809 8.1253ZM20.7809 15.6247L15.7809 21.8747L14.2191 20.6253L19.2191 14.3753L20.7809 15.6247ZM20 16H5V14H20V16Z" fill="#CCD2E3"/>
</svg>
