<svg width="18" height="14" viewBox="0 0 18 14" fill="none" xmlns="http://www.w3.org/2000/svg">
<path fill-rule="evenodd" clip-rule="evenodd" d="M0.0132028 4.15129C-3.38676e-10 4.69022 0 5.30205 0 6V8C0 10.8284 0 12.2426 0.87868 13.1213C1.75736 14 3.17157 14 6 14H12C14.8284 14 16.2426 14 17.1213 13.1213C18 12.2426 18 10.8284 18 8V6C18 5.30205 18 4.69022 17.9868 4.15129L9.97129 8.60436C9.36724 8.93994 8.63276 8.93994 8.02871 8.60436L0.0132028 4.15129ZM0.242967 2.02971C0.325845 2.05052 0.407399 2.08237 0.485643 2.12584L9 6.85604L17.5144 2.12584C17.5926 2.08237 17.6742 2.05052 17.757 2.02971C17.6271 1.55619 17.4276 1.18491 17.1213 0.87868C16.2426 0 14.8284 0 12 0H6C3.17157 0 1.75736 0 0.87868 0.87868C0.572448 1.18491 0.372942 1.55619 0.242967 2.02971Z" fill="white"/>
</svg>
