<svg width="30" height="30" viewBox="0 0 30 30" fill="none" xmlns="http://www.w3.org/2000/svg">
<rect width="30" height="30" fill="#EFF0F5"/>
<path d="M25.809 11.2409L29.541 7.5089C29.661 7.3919 29.715 7.2269 29.697 7.0649C29.673 6.8969 29.577 6.7529 29.436 6.6689L19.371 0.854898C19.164 0.734898 18.9 0.770898 18.732 0.941898L15 4.6739L11.268 0.944898C11.097 0.773898 10.836 0.737898 10.626 0.857898L0.563952 6.6719C0.416952 6.7559 0.323952 6.8999 0.302952 7.0679C0.281952 7.2269 0.332952 7.3949 0.449952 7.5119L4.18195 11.2439L0.452952 14.9789C0.335952 15.0959 0.281952 15.2609 0.305952 15.4229C0.323952 15.5849 0.419952 15.7319 0.566952 15.8129L4.40695 18.0329V22.8689C4.40695 23.0609 4.50895 23.2349 4.67095 23.3309L14.736 29.1479C14.817 29.1989 14.91 29.2169 15 29.2169C15.09 29.2169 15.183 29.1959 15.264 29.1479L25.326 23.3309C25.488 23.2349 25.59 23.0609 25.59 22.8689V18.0329L29.433 15.8129C29.574 15.7289 29.67 15.5849 29.694 15.4229C29.715 15.2579 29.658 15.0959 29.538 14.9789L25.809 11.2409ZM23.997 11.1749L15 16.3739L5.99995 11.1749L12.747 7.2749L15 5.9759L23.139 10.6739L23.997 11.1749ZM19.194 1.9139L28.302 7.1819L24.972 10.5119L24.426 10.1969L15.861 5.2469L19.194 1.9139ZM10.806 1.9139L14.139 5.2469L5.02495 10.5089L1.69195 7.1789L10.806 1.9139ZM5.02495 11.8379L14.133 17.1059L10.803 20.4359L5.19895 17.1959C5.19595 17.1959 5.19595 17.1959 5.19595 17.1959L1.69195 15.1709L5.02495 11.8379ZM5.46595 18.5789L10.626 21.5579C10.71 21.6089 10.8 21.6299 10.89 21.6299C10.902 21.6299 10.908 21.6179 10.92 21.6179C11.043 21.6149 11.169 21.5729 11.265 21.4769L14.469 18.2729V27.6989L5.46595 22.4939V18.5789ZM24.528 22.4939L15.528 27.6959V18.2729L18.726 21.4769C18.819 21.5699 18.942 21.6089 19.068 21.6179C19.08 21.6179 19.089 21.6299 19.098 21.6299C19.191 21.6299 19.281 21.6089 19.362 21.5579L24.522 18.5789V22.4939H24.528ZM19.191 20.4329L15.861 17.1029L24.972 11.8349L28.302 15.1679L19.191 20.4329Z" fill="black"/>
</svg>
