<svg width="512" height="512" viewBox="0 0 512 512" fill="none" xmlns="http://www.w3.org/2000/svg">
<path d="M188.5 2.09999C186.3 3.19999 172 10.9 156.8 19.2C133 32.1 129 34.6 128.1 37.1C126.1 42.7 130.3 47.8 135.9 46.7C137.4 46.4 150.7 39.6 165.5 31.5L192.4 16.9L217.7 42.2C231.6 56.1 242.6 67.7 242.2 68.1C241.8 68.5 203.5 89.3 157 114.4L72.6 160.1L47.2 134.7L21.9 109.3L66.7 85.1C91.3 71.8 112.5 59.8 113.8 58.4C116.3 55.6 116.5 54.2 114.9 50.6C113 46.5 109.1 45.8 103.4 48.4C95.8 52 5.7 101 4.3 102.3C3.6 103 2.7 105 2.4 106.8C1.7 110.1 2.2 110.7 31.1 139.6L60.5 169L52.5 177.2C48.1 181.8 34.9 195.2 23.2 207C10.1 220.4 2 229.3 2 230.6C2.1 235.4 4.7 237.3 33.5 252.9L62.5 268.6L63 337.5C63.3 375.5 63.9 407.2 64.3 408.1C65.3 410.1 57.5 405.7 162.3 462.4C212.8 489.7 254.9 512 256 512C257.1 512 299.2 489.7 349.7 462.4C454.5 405.7 446.7 410.1 447.7 408.1C448.1 407.2 448.7 375.5 449 337.5L449.5 268.6L478.5 252.9C507.3 237.3 509.9 235.4 510 230.6C510 229.3 501.9 220.4 488.8 207C477.1 195.2 463.9 181.8 459.5 177.2L451.5 169L480.9 139.6C509.8 110.7 510.3 110.1 509.6 106.8C509.3 105 508.4 103 507.7 102.3C506.7 101.3 343.5 12.5 324.9 2.89999C320.5 0.599992 318.3 -7.62939e-06 316.2 0.499992C314.5 0.899992 303.4 11.2 284.8 29.8L256 58.4L226.7 29.2C204.3 6.89999 196.8 -7.62939e-06 194.9 -7.62939e-06C193.6 -7.62939e-06 190.7 0.899992 188.5 2.09999ZM405.4 63.4L490.1 109.4L464.8 134.7L439.4 160.1L361.5 117.9C318.6 94.8 280.2 74 276.1 71.8L268.8 67.7L294.1 42.4C308.1 28.4 319.8 17.1 320.1 17.2C320.4 17.4 358.8 38.2 405.4 63.4ZM340.5 123.7C387 148.8 424.9 169.4 424.8 169.6C424.6 169.7 386.6 190.3 340.3 215.4L256 260.9L171.5 215.3C125.1 190.1 87.2 169.5 87.4 169.3C87.8 168.9 255.3 78.1 255.8 78.1C255.9 78 294.1 98.5 340.5 123.7ZM157.2 224.6C203.6 249.6 241.8 270.4 242.2 270.8C242.6 271.2 231.6 282.9 217.7 296.8L192.5 322L107.2 275.8L22 229.6L47.2 204.3C61.1 190.4 72.6 179 72.7 179C72.9 179 110.9 199.5 157.2 224.6ZM464.8 204.3L490 229.6L445.8 253.5C421.4 266.7 400.3 278.7 398.8 280.2C395.5 283.4 395.3 285.8 398.1 289.4C401.4 293.5 404.7 292.8 419.2 285C426.3 281.1 432.3 278 432.6 278C432.8 278 433 305.6 433 339.2L432.9 400.5L349.1 445.8C303 470.6 265 491 264.6 491C264.3 491 264 445.4 264 389.8V288.6L288.8 313.2C302.4 326.7 314.5 338.1 315.6 338.4C316.8 338.8 319 338.6 320.6 338C326.2 335.8 380.9 305.8 382.6 303.9C386.6 299.5 383.3 292 377.3 292C376 292 362.4 298.7 347.2 307L319.5 322L294.2 296.7C270.2 272.7 269 271.4 271 270.1C273.4 268.5 438.2 179.2 439 179.1C439.3 179 450.9 190.4 464.8 204.3ZM132.7 306.7C191.7 338.7 193.1 339.4 196.3 338.4C197.5 338.1 209.6 326.7 223.3 313.2L248 288.6V389.8C248 445.4 247.7 491 247.4 491C247.1 491 209.1 470.6 162.9 445.8L79.1 400.5L79 339.2C79 305.6 79.2 278 79.4 278C79.7 278 103.6 290.9 132.7 306.7Z" fill="white"/>
</svg>
