<svg width="22" height="24" viewBox="0 0 22 24" fill="none" xmlns="http://www.w3.org/2000/svg">
<path d="M3.66667 13C3.66667 11.1144 3.66667 10.1716 4.25246 9.58579C4.83824 9 5.78105 9 7.66667 9H14.3333C16.219 9 17.1618 9 17.7476 9.58579C18.3333 10.1716 18.3333 11.1144 18.3333 13V15C18.3333 17.8284 18.3333 19.2426 17.4547 20.1213C16.576 21 15.1618 21 12.3333 21H9.66667C6.83825 21 5.42403 21 4.54535 20.1213C3.66667 19.2426 3.66667 17.8284 3.66667 15V13Z" stroke="black"/>
<path d="M14.6667 8V6.66667C14.6667 4.64162 13.0251 3 11 3V3C8.97497 3 7.33334 4.64162 7.33334 6.66667V8" stroke="black" stroke-linecap="round"/>
<path d="M12.3333 15C12.3333 15.8703 11.6963 16.5 11 16.5C10.3037 16.5 9.66667 15.8703 9.66667 15C9.66667 14.1297 10.3037 13.5 11 13.5C11.6963 13.5 12.3333 14.1297 12.3333 15Z" fill="white" stroke="black"/>
</svg>
